<?xml version="1.0" encoding="UTF-8" standalone="no"?><!DOCTYPE svg PUBLIC "-//W3C//DTD SVG 1.1//EN" "http://www.w3.org/Graphics/SVG/1.1/DTD/svg11.dtd"><svg width="100%" height="100%" viewBox="0 0 250 250" version="1.1" xmlns="http://www.w3.org/2000/svg" xmlns:xlink="http://www.w3.org/1999/xlink" xml:space="preserve" style="fill-rule:evenodd;clip-rule:evenodd;stroke-linejoin:round;stroke-miterlimit:1.41421;"><g><path d="M108.209,1.653c-4.728,2.428 -8.946,8.563 -7.156,10.224c0.639,0.511 1.405,0.256 1.661,-0.639c1.534,-4.345 6.262,-8.051 10.352,-8.179c4.856,-0.128 10.479,3.962 7.54,5.623c-2.3,1.278 -2.045,8.435 0.256,9.841c1.405,0.894 0.766,1.661 -2.173,3.195c-7.54,3.834 -13.93,0.894 -32.844,-15.081c-4.601,-3.961 -7.157,-5.112 -12.141,-5.623c-5.496,-0.511 -6.518,-0.128 -9.458,2.94c-2.683,2.811 -3.322,4.856 -3.322,9.712c0,5.879 -0.256,6.262 -3.195,6.262c-4.346,0 -10.224,3.068 -12.653,6.646c-2.683,3.706 -2.555,11.63 0,16.742c1.151,2.3 5.368,7.795 9.458,12.396c9.968,11.502 12.396,15.208 14.058,21.982c1.278,4.728 1.15,6.645 -0.512,10.352c-1.661,4.217 -5.878,6.645 -5.878,3.45c0,-0.767 -2.045,-1.278 -4.473,-1.278c-2.429,0 -4.473,0.511 -4.473,1.278c0,2.045 -2.301,1.534 -5.112,-1.278c-3.706,-3.706 -3.323,-10.352 0.766,-15.208c1.79,-2.173 4.346,-3.962 5.751,-3.962c1.278,0 2.429,-0.894 2.429,-1.917c0,-5.112 -10.097,1.023 -13.291,8.052c-2.812,6.006 -2.173,9.968 2.428,15.335c3.067,3.707 3.067,3.834 0.639,6.007c-3.323,3.067 -5.496,10.096 -4.473,14.697c1.022,4.856 7.412,10.224 12.268,10.224c4.857,0 4.729,-2.045 -0.127,-2.939c-5.624,-1.151 -8.946,-5.112 -8.946,-10.863c0,-5.24 2.939,-10.48 5.878,-10.48c1.023,0 1.79,0.511 1.79,1.278c0,1.917 8.69,1.534 9.329,-0.383c0.895,-2.556 5.879,2.811 6.773,7.412c1.023,5.495 -1.15,9.457 -12.396,22.62c-10.991,12.908 -12.652,15.975 -13.547,24.538c-1.15,11.758 3.578,17.636 14.314,17.636c4.856,0 5.751,0.384 5.751,2.428c0,3.451 -1.917,3.962 -13.036,2.684c-14.186,-1.533 -14.313,-1.406 -15.08,11.247l-0.639,10.607l-6.007,1.789c-3.45,0.895 -6.134,1.917 -6.134,2.173c0,0.255 0.894,2.3 2.045,4.601c1.661,3.195 1.917,6.134 1.405,12.396c-0.766,7.412 -0.639,8.179 1.406,7.54c1.15,-0.383 6.007,-1.917 10.735,-3.323c11.63,-3.578 12.908,-4.984 11.758,-13.546c-0.767,-6.646 -0.639,-6.901 2.172,-6.901c5.496,0 8.819,1.533 8.819,3.834c0,3.578 7.284,8.945 11.885,8.945c4.984,0 15.208,-4.856 21.342,-10.096c3.834,-3.322 5.879,-3.961 14.953,-4.728l10.48,-0.767l-0.384,3.323c-0.255,1.917 0.384,3.834 1.406,4.473c2.939,1.533 -1.278,4.217 -7.412,4.473c-5.496,0.255 -8.819,-2.428 -8.819,-7.157c0,-1.278 -0.511,-2.3 -1.278,-2.3c-2.172,0 -1.405,5.239 1.406,9.201c3.451,4.729 2.045,6.39 -1.533,1.917c-1.534,-2.045 -3.834,-3.451 -5.751,-3.451c-3.451,0 -8.18,4.09 -8.18,7.029c0,1.278 -1.278,1.917 -3.706,1.917c-4.6,0 -7.029,2.812 -7.029,8.307c0,7.924 1.151,8.307 23.004,8.307c17.125,0 19.681,0.256 19.681,2.045c0,2.173 -6.773,9.457 -8.818,9.457c-2.811,0 -2.939,-3.067 -0.128,-5.367c2.045,-1.662 2.301,-2.301 0.895,-2.301c-2.812,0 -6.262,3.834 -5.495,6.007c0.383,1.022 0.766,2.173 0.766,2.428c0,1.023 6.646,0.511 8.819,-0.767c1.278,-0.639 3.322,-3.578 4.473,-6.39c1.15,-2.811 2.556,-5.112 3.322,-5.112c0.767,0 2.173,2.301 3.323,5.112c2.3,5.624 4.984,7.668 9.841,7.668c2.556,0 4.728,-2.044 4.728,-4.473c0,-1.278 -4.217,-4.473 -6.006,-4.473c-1.406,0 -1.151,0.639 0.894,2.301c2.812,2.3 2.684,5.367 -0.128,5.367c-2.044,0 -8.818,-7.284 -8.818,-9.457c0,-1.789 2.556,-2.045 19.681,-2.045c21.726,0 22.621,-0.255 22.876,-8.179c0.128,-5.367 -2.172,-8.435 -6.645,-8.435c-2.428,0 -3.834,-1.022 -5.24,-4.217c-2.556,-5.623 -8.69,-6.39 -12.524,-1.661c-1.406,1.917 -2.94,3.322 -3.323,3.322c-1.661,0 -0.639,-2.556 2.428,-5.878c1.789,-1.917 3.195,-4.601 3.067,-6.135c0,-2.556 -0.127,-2.556 -1.533,-0.255c-3.579,5.878 -6.901,7.923 -12.269,7.412c-5.623,-0.511 -9.457,-3.578 -6.262,-4.728c1.15,-0.512 1.789,-2.045 1.533,-3.962c-0.383,-3.579 0.895,-3.706 15.975,-1.789c8.307,1.15 10.352,1.917 15.336,6.134c7.668,6.39 10.608,7.923 15.464,7.923c4.345,0 11.502,-5.878 11.502,-9.329c0,-1.917 3.706,-3.45 8.818,-3.45c2.812,0 2.94,0.255 2.173,6.901c-0.767,5.367 -0.511,7.284 1.15,8.946c1.661,1.661 20.959,8.434 24.026,8.434c0.384,0 0.256,-1.533 -0.383,-3.322c-1.917,-4.729 -1.534,-13.419 0.639,-17.637c1.022,-1.917 1.917,-3.834 1.917,-4.089c0,-0.256 -2.684,-1.278 -6.007,-2.173l-6.134,-1.789l-0.384,-10.352c-0.383,-12.78 -0.894,-13.035 -15.463,-11.63c-11.63,1.151 -12.908,0.895 -12.908,-2.811c0,-2.045 0.895,-2.428 6.518,-2.428c5.495,0 7.029,-0.639 10.352,-3.962c3.706,-3.706 3.834,-4.217 3.322,-11.885c-0.894,-9.969 -2.428,-12.908 -13.546,-25.688c-9.713,-11.374 -13.036,-16.742 -13.036,-21.598c0,-3.706 6.134,-11.247 7.285,-8.818c0.766,1.917 9.329,2.3 9.329,0.383c0,-2.3 3.706,-1.278 5.623,1.534c2.556,3.706 2.556,11.118 0.128,14.697c-1.15,1.533 -3.962,3.195 -6.518,3.706c-4.984,0.894 -5.367,3.962 -0.383,3.323c3.962,-0.512 9.074,-4.218 11.118,-8.052c2.301,-4.345 0.767,-12.524 -3.067,-16.614c-2.811,-2.939 -2.939,-3.45 -1.15,-4.984c2.556,-2.173 5.751,-8.179 5.751,-10.863c0,-4.089 -4.345,-11.246 -8.179,-13.547c-4.729,-2.939 -7.157,-3.067 -7.157,-0.511c0,1.023 1.15,1.917 2.428,1.917c1.406,0 3.962,1.789 5.751,3.962c3.834,4.473 4.345,10.607 1.278,14.952c-1.917,2.812 -5.623,3.834 -5.623,1.534c0,-0.767 -2.045,-1.278 -4.473,-1.278c-3.195,0 -4.473,0.511 -4.473,1.917c0,3.578 -4.729,-0.256 -6.39,-4.984c-2.812,-8.435 0.511,-15.592 14.697,-32.078c3.706,-4.217 7.54,-9.457 8.818,-11.757c5.368,-10.608 0.256,-21.726 -10.735,-23.004l-5.751,-0.639l0.383,-6.007c0.384,-4.856 -0.127,-6.518 -2.811,-9.457c-6.518,-7.029 -18.403,-3.962 -32.461,8.563c-10.224,9.073 -14.697,11.374 -19.554,10.351c-4.217,-0.894 -5.623,-2.556 -4.089,-4.856c1.533,-2.556 1.278,-8.818 -0.511,-9.457c-2.94,-1.15 -1.79,-3.067 2.811,-4.984c6.007,-2.428 10.991,-0.384 12.78,5.495c1.406,4.856 3.195,5.495 3.195,1.15c0,-3.962 -4.217,-9.201 -8.435,-10.224c-4.089,-1.022 -11.629,1.278 -13.163,4.09c-1.15,1.917 -1.533,1.917 -4.217,-0.639c-4.345,-3.962 -8.563,-4.601 -13.803,-2.045Zm-27.349,4.473c2.045,1.661 7.54,6.134 12.397,10.096c9.968,8.435 17.636,11.119 24.665,8.818c2.428,-0.766 4.984,-2.428 5.751,-3.578c0.895,-1.661 1.534,-1.789 1.917,-0.511c0.384,0.894 2.428,2.428 4.601,3.578c6.262,3.195 11.374,1.406 22.493,-7.923c11.757,-9.969 17.764,-13.291 23.898,-13.291c6.134,0 9.585,3.706 9.585,10.096c0,8.434 -8.435,13.035 -15.08,8.307c-1.662,-1.151 -3.451,-3.451 -4.09,-5.112c-0.639,-1.662 -1.789,-3.068 -2.556,-3.068c-4.345,0 3.451,10.48 9.074,12.141c4.345,1.278 4.473,1.406 3.323,5.879c-1.534,6.774 1.533,13.419 7.284,15.847c2.556,1.023 5.496,1.917 6.646,1.917c3.195,0 1.406,-2.939 -2.556,-3.961c-8.818,-2.429 -11.374,-11.63 -5.368,-18.659c5.879,-6.774 19.042,-3.451 20.576,5.24c1.278,6.517 0.128,8.818 -11.119,21.981c-11.502,13.802 -14.952,20.32 -15.08,28.883c0,4.601 0.767,6.901 3.451,10.096c2.428,2.811 3.067,4.345 1.917,4.728c-4.473,1.406 -6.902,14.058 -3.962,19.809c0.894,1.534 5.623,7.668 10.735,13.675c10.607,12.524 13.163,16.997 14.186,24.793c0.767,5.24 0.511,6.134 -3.067,9.585c-5.368,5.367 -11.758,5.495 -16.998,0.256c-6.006,-6.007 -4.473,-14.57 3.451,-18.787c4.856,-2.684 5.623,-4.345 1.917,-4.345c-6.262,0 -14.442,12.396 -12.141,18.403c0.639,1.661 -0.128,2.045 -3.195,2.045c-5.879,0 -11.119,3.195 -12.652,7.54l-1.406,3.834l-4.345,-4.345c-3.834,-3.834 -5.368,-4.473 -10.352,-4.473c-6.773,0 -12.78,2.684 -14.825,6.39c-1.789,3.45 -8.434,3.45 -10.224,0c-2.044,-3.706 -8.051,-6.39 -14.569,-6.39c-4.728,0 -6.518,0.767 -10.352,4.345l-4.6,4.473l-1.406,-3.834c-1.534,-4.345 -6.773,-7.54 -12.652,-7.54c-3.067,0 -3.834,-0.384 -3.195,-2.045c2.3,-6.007 -5.879,-18.403 -12.141,-18.403c-3.706,0 -2.94,1.661 1.917,4.345c8.051,4.345 9.713,13.802 3.195,19.17c-5.496,4.728 -11.63,4.473 -16.742,-0.639c-3.578,-3.451 -3.834,-4.345 -3.067,-9.585c1.022,-7.796 3.323,-11.885 14.186,-24.665c5.112,-6.007 9.84,-12.269 10.735,-13.803c2.939,-5.751 0.511,-18.403 -3.962,-19.809c-1.15,-0.383 -0.511,-1.917 1.917,-4.728c2.684,-3.195 3.451,-5.495 3.451,-10.096c-0.128,-8.563 -3.579,-15.081 -15.081,-28.883c-11.246,-13.163 -12.396,-15.464 -11.118,-21.981c1.022,-5.496 5.367,-8.563 12.396,-8.563c4.218,0 6.007,0.767 8.307,3.451c5.623,6.517 2.94,16.358 -4.984,18.403c-2.3,0.511 -4.345,1.789 -4.601,2.683c-0.767,2.301 6.518,1.023 10.863,-1.789c3.706,-2.428 5.879,-10.351 4.345,-15.719c-1.15,-3.834 -1.022,-4.09 1.79,-4.09c3.961,0 9.201,-4.728 10.351,-9.329c1.023,-4.217 -1.533,-4.729 -2.811,-0.639c-1.406,4.984 -4.473,7.412 -9.074,7.412c-5.879,0 -9.329,-3.706 -9.329,-10.224c0,-9.584 9.329,-13.546 17.38,-7.412Zm70.162,172.401c4.984,0.767 20.704,1.151 35.145,0.895l26.199,-0.383l0.383,11.118l0.384,10.991l-12.525,0.895c-11.757,0.894 -40.001,0.127 -64.922,-1.662c-6.262,-0.511 -16.614,-0.383 -23.004,0.256c-6.262,0.511 -26.071,1.15 -43.835,1.278l-32.333,0.255l0.767,-23.004l32.589,-0.255c17.891,-0.128 36.039,-0.895 40.256,-1.534c8.307,-1.406 26.71,-0.894 40.896,1.15Zm-115.658,26.711c0,4.345 2.939,6.389 8.946,6.389c3.706,0 3.961,0.256 3.578,4.09c-0.383,3.706 -0.895,4.217 -7.54,6.262c-14.697,4.218 -13.802,4.345 -12.524,-1.15c0.894,-4.09 0.511,-7.54 -1.534,-15.464c-0.256,-1.022 0.767,-2.172 2.684,-2.811c5.623,-1.662 6.39,-1.278 6.39,2.684Zm188.248,-1.662c0.511,0.256 0.256,1.789 -0.639,3.323c-0.767,1.534 -1.406,6.39 -1.406,10.607l0,7.924l-8.434,-2.428c-11.886,-3.451 -11.63,-3.195 -11.63,-7.541c0,-3.45 0.383,-3.834 3.962,-3.834c6.006,0 8.818,-2.044 8.818,-6.517c0,-3.706 0.128,-3.834 4.217,-3.067c2.173,0.511 4.473,1.15 5.112,1.533Z" style="fill:url(#_Linear1);fill-rule:nonzero;"/><path d="M126.101,62.741l0,31.311l22.365,0c16.998,0 22.621,-0.383 23.132,-1.661c0.255,-0.895 0.383,-14.825 0.255,-30.928l-0.383,-29.394l-2.556,4.09c-1.278,2.3 -3.195,4.217 -4.089,4.217c-2.173,0 -2.045,-1.533 0.255,-4.6c1.023,-1.278 1.917,-2.812 1.917,-3.451c0,-0.511 -9.201,-0.895 -20.448,-0.895l-20.448,0l0,31.311Zm38.212,-20.575c1.278,1.533 0.128,3.834 -5.623,12.268l-7.284,10.352l2.172,4.601c1.917,3.834 2.045,5.367 0.639,9.713c-2.3,7.923 -7.54,12.396 -14.313,12.396c-14.058,0 -16.614,-17.892 -3.707,-26.454c2.429,-1.662 5.879,-2.94 7.924,-2.94c3.067,0 4.217,-1.278 9.585,-10.863c6.134,-10.99 7.924,-12.396 10.607,-9.073Z" style="fill:url(#_Linear2);fill-rule:nonzero;"/><path d="M96.196,51.239c-0.383,1.278 -1.533,1.917 -2.684,1.406c-2.3,-0.767 -2.428,-0.256 -0.511,3.451c1.023,2.172 0.639,2.044 -1.917,-0.767c-3.578,-3.834 -4.473,-3.195 -1.406,0.894c3.195,4.218 2.173,4.985 -1.405,1.151l-3.323,-3.579l2.045,3.451c2.811,4.728 2.556,5.751 -0.512,2.939c-3.45,-3.195 -3.194,-0.894 0.384,2.94c2.3,2.683 2.428,3.067 0.511,2.428c-1.278,-0.511 -2.045,-0.384 -1.533,0.255c0.383,0.639 0,1.406 -0.895,1.662c-0.895,0.383 -0.639,0.894 0.767,1.406c1.278,0.511 1.917,0.383 1.405,-0.384c-0.383,-0.767 -0.127,-1.278 0.512,-1.278c2.172,0 1.661,2.301 -0.767,3.706c-2.045,1.151 -1.789,1.534 1.917,2.94c6.134,2.428 4.984,3.195 -3.578,2.556l-7.796,-0.511l0.383,8.69l0.384,8.818l22.748,0.383l22.62,0.256l0,-18.147l-7.029,0.511c-3.834,0.128 -7.029,0 -7.029,-0.384c0,-0.383 2.301,-1.405 5.24,-2.3c2.94,-0.895 4.857,-1.917 4.473,-2.3c-0.383,-0.384 -2.428,0 -4.728,0.766c-5.496,1.917 -6.007,1.023 -1.151,-2.428c2.045,-1.533 3.451,-3.323 3.068,-3.962c-0.384,-0.766 0.255,-2.556 1.533,-4.089c1.278,-1.534 0.384,-1.15 -2.045,1.022c-2.428,2.045 -3.578,2.812 -2.683,1.662c0.894,-1.278 1.405,-2.94 1.022,-3.834c-0.256,-0.895 0,-2.812 0.639,-4.218l1.15,-2.556l-1.917,2.556c-1.022,1.406 -2.811,3.706 -3.962,5.112l-2.172,2.556l0.894,-2.556c0.512,-1.406 1.023,-3.962 1.278,-5.751c0.384,-2.684 0.256,-2.556 -1.405,0.895c-1.917,4.601 -3.323,5.495 -2.94,1.917c0.128,-1.15 0,-3.579 0,-5.368l-0.255,-3.195l-1.406,3.195c-1.278,3.067 -1.278,3.067 -2.301,0.639c-0.766,-1.661 -1.15,-1.917 -1.278,-0.639c0,1.278 -0.639,0.895 -1.789,-1.15c-1.406,-2.556 -1.789,-2.684 -2.556,-0.767Z" style="fill:url(#_Linear3);fill-rule:nonzero;"/><path d="M123.545,95.33l0,62.622l-22.62,-0.256l-22.748,-0.383l-0.384,-31.055l-0.255,-30.928l46.007,0Zm-14.084,19.63c7.568,5.779 9.716,15.704 4.793,22.151c-4.923,6.447 -15.064,6.99 -22.632,1.211c-7.568,-5.779 -9.716,-15.705 -4.793,-22.152c4.923,-6.446 15.064,-6.989 22.632,-1.21Z" style="fill:url(#_Linear4);"/><path d="M131.213,109.416c0,-2.101 3.995,-3.806 8.914,-3.806c4.92,0 8.914,1.705 8.914,3.806l0,23.053c0.373,-0.078 0.618,-0.148 0.703,-0.205c0.256,-0.383 0.895,-2.812 1.15,-5.367c0.767,-5.879 1.534,-7.157 5.112,-8.563c3.579,-1.534 4.601,-1.534 4.601,-0.128c0,0.639 -1.15,1.406 -2.684,1.789c-3.195,0.895 -2.172,3.323 1.278,3.068c1.278,0 2.301,-1.023 2.173,-2.173c-0.128,-1.022 0.767,-1.917 1.789,-1.917c1.278,0 2.301,2.173 3.195,6.39c1.023,4.217 2.173,6.518 3.578,6.773c1.79,0.384 2.173,2.173 2.173,11.63c0,6.901 -0.639,11.758 -1.534,12.652c-1.022,1.023 -8.051,1.534 -23.003,1.534l-21.598,0l0.383,-13.164c0.383,-11.502 0.639,-13.035 2.556,-12.652c0.656,0.11 1.447,0.482 2.3,1.045l0,-23.765Zm34.762,30.005c0.383,4.856 0,9.713 -0.639,10.479c-1.278,1.79 -8.179,2.173 -11.63,0.895c-1.534,-0.639 -2.045,-2.556 -2.045,-8.051c0,-11.63 0.511,-12.269 7.668,-12.269l6.135,0l0.511,8.946Zm-17.334,-6.873c-0.394,-4.659 0.318,-21.258 0.394,-22.986c-0.18,2.033 -4.102,3.66 -8.908,3.66c-4.769,0 -8.669,-1.603 -8.903,-3.615c1.051,18.164 0.523,22.618 0.19,23.709c3.1,2.126 6.927,6.626 8.106,10.067c1.023,2.811 2.173,3.834 5.24,4.089c2.812,0.256 4.217,-0.255 4.856,-1.661c0.639,-1.662 0.128,-1.917 -2.172,-1.278l-2.812,0.894l2.94,-2.172c2.811,-2.045 3.834,-7.54 1.533,-8.946c-0.639,-0.384 -3.195,0.128 -5.623,1.15c-3.578,1.534 -4.856,1.534 -6.646,0.256c-1.917,-1.534 -1.278,-1.79 4.985,-2.301c2.791,-0.27 5.393,-0.603 6.82,-0.866Z" style="fill:url(#_Linear5);"/><path d="M174.562,28.235l0,131.634l-99.478,0l0,-131.634l99.478,0Zm-2.35,2.556l-94.7,0l0,126.522l94.7,0l0,-126.522Z" style="fill:url(#_Linear6);"/><text x="44.501px" y="193.624px" style="font-family:'EdwardianScriptITC', 'Edwardian Script ITC', cursive;font-stretch:semi-expanded;font-size:15.336px;fill:url(#_Linear7);">Academia Mexicana de Catadores</text><text x="87.099px" y="232.671px" style="font-family:'EdwardianScriptITC', 'Edwardian Script ITC', cursive;font-stretch:semi-expanded;font-size:13.18px;fill:#fff;">TEQUILA</text></g><defs><linearGradient id="_Linear1" x1="0" y1="0" x2="1" y2="0" gradientUnits="userSpaceOnUse" gradientTransform="matrix(204.479,0,0,-250,22.5838,125)"><stop offset="0" style="stop-color:#ca3058;stop-opacity:1"/><stop offset="1" style="stop-color:#ff9948;stop-opacity:1"/></linearGradient><linearGradient id="_Linear2" x1="0" y1="0" x2="1" y2="0" gradientUnits="userSpaceOnUse" gradientTransform="matrix(45.8023,0,0,-62.6217,126.101,62.7412)"><stop offset="0" style="stop-color:#ca3058;stop-opacity:1"/><stop offset="1" style="stop-color:#ff9948;stop-opacity:1"/></linearGradient><linearGradient id="_Linear3" x1="0" y1="0" x2="1" y2="0" gradientUnits="userSpaceOnUse" gradientTransform="matrix(46.1356,0,0,-44.1236,77.4097,71.9903)"><stop offset="0" style="stop-color:#ca3058;stop-opacity:1"/><stop offset="1" style="stop-color:#ff9948;stop-opacity:1"/></linearGradient><linearGradient id="_Linear4" x1="0" y1="0" x2="1" y2="0" gradientUnits="userSpaceOnUse" gradientTransform="matrix(46.0078,0,0,62.6217,77.5375,126.641)"><stop offset="0" style="stop-color:#ca3058;stop-opacity:1"/><stop offset="1" style="stop-color:#ff9948;stop-opacity:1"/></linearGradient><linearGradient id="_Linear5" x1="0" y1="0" x2="1" y2="0" gradientUnits="userSpaceOnUse" gradientTransform="matrix(46.1356,0,0,52.3421,125.974,131.781)"><stop offset="0" style="stop-color:#ca3058;stop-opacity:1"/><stop offset="1" style="stop-color:#ff9948;stop-opacity:1"/></linearGradient><linearGradient id="_Linear6" x1="0" y1="0" x2="1" y2="0" gradientUnits="userSpaceOnUse" gradientTransform="matrix(99.4781,0,0,131.633,75.0843,94.0521)"><stop offset="0" style="stop-color:#ca3058;stop-opacity:1"/><stop offset="1" style="stop-color:#ff9948;stop-opacity:1"/></linearGradient><linearGradient id="_Linear7" x1="0" y1="0" x2="1" y2="0" gradientUnits="userSpaceOnUse" gradientTransform="matrix(158.376,0,0,15.7672,44.5007,190.772)"><stop offset="0" style="stop-color:#ca3058;stop-opacity:1"/><stop offset="1" style="stop-color:#ff9948;stop-opacity:1"/></linearGradient></defs></svg>