<?xml version="1.0" encoding="UTF-8" standalone="no"?>
<!DOCTYPE svg PUBLIC "-//W3C//DTD SVG 1.1//EN" "http://www.w3.org/Graphics/SVG/1.1/DTD/svg11.dtd">
<svg width="100%" height="100%" viewBox="0 0 250 250" version="1.1" xmlns="http://www.w3.org/2000/svg" xmlns:xlink="http://www.w3.org/1999/xlink" xml:space="preserve" style="fill-rule:evenodd;clip-rule:evenodd;stroke-linejoin:round;stroke-miterlimit:1.41421;">
    <g>
        <path d="M108.209,1.653C103.481,4.081 99.263,10.216 101.053,11.877C101.692,12.388 102.458,12.133 102.714,11.238C104.248,6.893 108.976,3.187 113.066,3.059C117.922,2.931 123.545,7.021 120.606,8.682C118.306,9.96 118.561,17.117 120.862,18.523C122.267,19.417 121.628,20.184 118.689,21.718C111.149,25.552 104.759,22.612 85.845,6.637C81.244,2.676 78.688,1.525 73.704,1.014C68.208,0.503 67.186,0.886 64.246,3.954C61.563,6.765 60.924,8.81 60.924,13.666C60.924,19.545 60.668,19.928 57.729,19.928C53.383,19.928 47.505,22.996 45.076,26.574C42.393,30.28 42.521,38.204 45.076,43.316C46.227,45.616 50.444,51.111 54.534,55.712C64.502,67.214 66.93,70.92 68.592,77.694C69.87,82.422 69.742,84.339 68.08,88.046C66.419,92.263 62.202,94.691 62.202,91.496C62.202,90.729 60.157,90.218 57.729,90.218C55.3,90.218 53.256,90.729 53.256,91.496C53.256,93.541 50.955,93.03 48.144,90.218C44.438,86.512 44.821,79.866 48.91,75.01C50.7,72.837 53.256,71.048 54.661,71.048C55.939,71.048 57.09,70.154 57.09,69.131C57.09,64.019 46.993,70.154 43.799,77.183C40.987,83.189 41.626,87.151 46.227,92.518C49.294,96.225 49.294,96.352 46.866,98.525C43.543,101.592 41.37,108.621 42.393,113.222C43.415,118.078 49.805,123.446 54.661,123.446C59.518,123.446 59.39,121.401 54.534,120.507C48.91,119.356 45.588,115.395 45.588,109.644C45.588,104.404 48.527,99.164 51.466,99.164C52.489,99.164 53.256,99.675 53.256,100.442C53.256,102.359 61.946,101.976 62.585,100.059C63.48,97.503 68.464,102.87 69.358,107.471C70.381,112.966 68.208,116.928 56.962,130.091C45.971,142.999 44.31,146.066 43.415,154.629C42.265,166.387 46.993,172.265 57.729,172.265C62.585,172.265 63.48,172.649 63.48,174.693C63.48,178.144 61.563,178.655 50.444,177.377C36.258,175.844 36.131,175.971 35.364,188.624L34.725,199.231L28.718,201.02C25.268,201.915 22.584,202.937 22.584,203.193C22.584,203.448 23.478,205.493 24.629,207.794C26.29,210.989 26.546,213.928 26.034,220.19C25.268,227.602 25.395,228.369 27.44,227.73C28.59,227.347 33.447,225.813 38.175,224.407C49.805,220.829 51.083,219.423 49.933,210.861C49.166,204.215 49.294,203.96 52.105,203.96C57.601,203.96 60.924,205.493 60.924,207.794C60.924,211.372 68.208,216.739 72.809,216.739C77.793,216.739 88.017,211.883 94.151,206.643C97.985,203.321 100.03,202.682 109.104,201.915L119.584,201.148L119.2,204.471C118.945,206.388 119.584,208.305 120.606,208.944C123.545,210.477 119.328,213.161 113.194,213.417C107.698,213.672 104.375,210.989 104.375,206.26C104.375,204.982 103.864,203.96 103.097,203.96C100.925,203.96 101.692,209.199 104.503,213.161C107.954,217.89 106.548,219.551 102.97,215.078C101.436,213.033 99.136,211.627 97.219,211.627C93.768,211.627 89.039,215.717 89.039,218.656C89.039,219.934 87.761,220.573 85.333,220.573C80.733,220.573 78.304,223.385 78.304,228.88C78.304,236.804 79.455,237.187 101.308,237.187C118.433,237.187 120.989,237.443 120.989,239.232C120.989,241.405 114.216,248.689 112.171,248.689C109.36,248.689 109.232,245.622 112.043,243.322C114.088,241.66 114.344,241.021 112.938,241.021C110.126,241.021 106.676,244.855 107.443,247.028C107.826,248.05 108.209,249.201 108.209,249.456C108.209,250.479 114.855,249.967 117.028,248.689C118.306,248.05 120.35,245.111 121.501,242.299C122.651,239.488 124.057,237.187 124.823,237.187C125.59,237.187 126.996,239.488 128.146,242.299C130.446,247.923 133.13,249.967 137.987,249.967C140.543,249.967 142.715,247.923 142.715,245.494C142.715,244.216 138.498,241.021 136.709,241.021C135.303,241.021 135.558,241.66 137.603,243.322C140.415,245.622 140.287,248.689 137.475,248.689C135.431,248.689 128.657,241.405 128.657,239.232C128.657,237.443 131.213,237.187 148.338,237.187C170.064,237.187 170.959,236.932 171.214,229.008C171.342,223.641 169.042,220.573 164.569,220.573C162.141,220.573 160.735,219.551 159.329,216.356C156.773,210.733 150.639,209.966 146.805,214.695C145.399,216.612 143.865,218.017 143.482,218.017C141.821,218.017 142.843,215.461 145.91,212.139C147.699,210.222 149.105,207.538 148.977,206.004C148.977,203.448 148.85,203.448 147.444,205.749C143.865,211.627 140.543,213.672 135.175,213.161C129.552,212.65 125.718,209.583 128.913,208.433C130.063,207.921 130.702,206.388 130.446,204.471C130.063,200.892 131.341,200.765 146.421,202.682C154.728,203.832 156.773,204.599 161.757,208.816C169.425,215.206 172.365,216.739 177.221,216.739C181.566,216.739 188.723,210.861 188.723,207.41C188.723,205.493 192.429,203.96 197.541,203.96C200.353,203.96 200.481,204.215 199.714,210.861C198.947,216.228 199.203,218.145 200.864,219.807C202.525,221.468 221.823,228.241 224.89,228.241C225.274,228.241 225.146,226.708 224.507,224.919C222.59,220.19 222.973,211.5 225.146,207.282C226.168,205.365 227.063,203.448 227.063,203.193C227.063,202.937 224.379,201.915 221.056,201.02L214.922,199.231L214.538,188.879C214.155,176.099 213.644,175.844 199.075,177.249C187.445,178.4 186.167,178.144 186.167,174.438C186.167,172.393 187.062,172.01 192.685,172.01C198.18,172.01 199.714,171.371 203.037,168.048C206.743,164.342 206.871,163.831 206.359,156.163C205.465,146.194 203.931,143.255 192.813,130.475C183.1,119.101 179.777,113.733 179.777,108.877C179.777,105.171 185.911,97.63 187.062,100.059C187.828,101.976 196.391,102.359 196.391,100.442C196.391,98.142 200.097,99.164 202.014,101.976C204.57,105.682 204.57,113.094 202.142,116.673C200.992,118.206 198.18,119.868 195.624,120.379C190.64,121.273 190.257,124.341 195.241,123.702C199.203,123.19 204.315,119.484 206.359,115.65C208.66,111.305 207.126,103.126 203.292,99.036C200.481,96.097 200.353,95.586 202.142,94.052C204.698,91.879 207.893,85.873 207.893,83.189C207.893,79.1 203.548,71.943 199.714,69.642C194.985,66.703 192.557,66.575 192.557,69.131C192.557,70.154 193.707,71.048 194.985,71.048C196.391,71.048 198.947,72.837 200.736,75.01C204.57,79.483 205.081,85.617 202.014,89.962C200.097,92.774 196.391,93.796 196.391,91.496C196.391,90.729 194.346,90.218 191.918,90.218C188.723,90.218 187.445,90.729 187.445,92.135C187.445,95.713 182.716,91.879 181.055,87.151C178.243,78.716 181.566,71.559 195.752,55.073C199.458,50.856 203.292,45.616 204.57,43.316C209.938,32.708 204.826,21.59 193.835,20.312L188.084,19.673L188.467,13.666C188.851,8.81 188.34,7.148 185.656,4.209C179.138,-2.82 167.253,0.247 153.195,12.772C142.971,21.845 138.498,24.146 133.641,23.123C129.424,22.229 128.018,20.567 129.552,18.267C131.085,15.711 130.83,9.449 129.041,8.81C126.101,7.66 127.251,5.743 131.852,3.826C137.859,1.398 142.843,3.442 144.632,9.321C146.038,14.177 147.827,14.816 147.827,10.471C147.827,6.509 143.61,1.27 139.392,0.247C135.303,-0.775 127.763,1.525 126.229,4.337C125.079,6.254 124.696,6.254 122.012,3.698C117.667,-0.264 113.449,-0.903 108.209,1.653L108.209,1.653ZM80.86,6.126C82.905,7.787 88.4,12.26 93.257,16.222C103.225,24.657 110.893,27.341 117.922,25.04C120.35,24.274 122.906,22.612 123.673,21.462C124.568,19.801 125.207,19.673 125.59,20.951C125.974,21.845 128.018,23.379 130.191,24.529C136.453,27.724 141.565,25.935 152.684,16.606C164.441,6.637 170.448,3.315 176.582,3.315C182.716,3.315 186.167,7.021 186.167,13.411C186.167,21.845 177.732,26.446 171.087,21.718C169.425,20.567 167.636,18.267 166.997,16.606C166.358,14.944 165.208,13.538 164.441,13.538C160.096,13.538 167.892,24.018 173.515,25.679C177.86,26.957 177.988,27.085 176.838,31.558C175.304,38.332 178.371,44.977 184.122,47.405C186.678,48.428 189.618,49.322 190.768,49.322C193.963,49.322 192.174,46.383 188.212,45.361C179.394,42.932 176.838,33.731 182.844,26.702C188.723,19.928 201.886,23.251 203.42,31.942C204.698,38.459 203.548,40.76 192.301,53.923C180.799,67.725 177.349,74.243 177.221,82.806C177.221,87.407 177.988,89.707 180.672,92.902C183.1,95.713 183.739,97.247 182.589,97.63C178.116,99.036 175.687,111.688 178.627,117.439C179.521,118.973 184.25,125.107 189.362,131.114C199.969,143.638 202.525,148.111 203.548,155.907C204.315,161.147 204.059,162.041 200.481,165.492C195.113,170.859 188.723,170.987 183.483,165.748C177.477,159.741 179.01,151.178 186.934,146.961C191.79,144.277 192.557,142.616 188.851,142.616C182.589,142.616 174.409,155.012 176.71,161.019C177.349,162.68 176.582,163.064 173.515,163.064C167.636,163.064 162.396,166.259 160.863,170.604L159.457,174.438L155.112,170.093C151.278,166.259 149.744,165.62 144.76,165.62C137.987,165.62 131.98,168.304 129.935,172.01C128.146,175.46 121.501,175.46 119.711,172.01C117.667,168.304 111.66,165.62 105.142,165.62C100.414,165.62 98.624,166.387 94.79,169.965L90.19,174.438L88.784,170.604C87.25,166.259 82.011,163.064 76.132,163.064C73.065,163.064 72.298,162.68 72.937,161.019C75.237,155.012 67.058,142.616 60.796,142.616C57.09,142.616 57.856,144.277 62.713,146.961C70.764,151.306 72.426,160.763 65.908,166.131C60.412,170.859 54.278,170.604 49.166,165.492C45.588,162.041 45.332,161.147 46.099,155.907C47.121,148.111 49.422,144.022 60.285,131.242C65.397,125.235 70.125,118.973 71.02,117.439C73.959,111.688 71.531,99.036 67.058,97.63C65.908,97.247 66.547,95.713 68.975,92.902C71.659,89.707 72.426,87.407 72.426,82.806C72.298,74.243 68.847,67.725 57.345,53.923C46.099,40.76 44.949,38.459 46.227,31.942C47.249,26.446 51.594,23.379 58.623,23.379C62.841,23.379 64.63,24.146 66.93,26.83C72.553,33.347 69.87,43.188 61.946,45.233C59.646,45.744 57.601,47.022 57.345,47.916C56.578,50.217 63.863,48.939 68.208,46.127C71.914,43.699 74.087,35.776 72.553,30.408C71.403,26.574 71.531,26.318 74.343,26.318C78.304,26.318 83.544,21.59 84.694,16.989C85.717,12.772 83.161,12.26 81.883,16.35C80.477,21.334 77.41,23.762 72.809,23.762C66.93,23.762 63.48,20.056 63.48,13.538C63.48,3.954 72.809,-0.008 80.86,6.126L80.86,6.126ZM151.022,178.527C156.006,179.294 171.726,179.678 186.167,179.422L212.366,179.039L212.749,190.157L213.133,201.148L200.608,202.043C188.851,202.937 160.607,202.17 135.686,200.381C129.424,199.87 119.072,199.998 112.682,200.637C106.42,201.148 86.611,201.787 68.847,201.915L36.514,202.17L37.281,179.166L69.87,178.911C87.761,178.783 105.909,178.016 110.126,177.377C118.433,175.971 136.836,176.483 151.022,178.527L151.022,178.527ZM35.364,205.238C35.364,209.583 38.303,211.627 44.31,211.627C48.016,211.627 48.271,211.883 47.888,215.717C47.505,219.423 46.993,219.934 40.348,221.979C25.651,226.197 26.546,226.324 27.824,220.829C28.718,216.739 28.335,213.289 26.29,205.365C26.034,204.343 27.057,203.193 28.974,202.554C34.597,200.892 35.364,201.276 35.364,205.238ZM223.612,203.576C224.123,203.832 223.868,205.365 222.973,206.899C222.206,208.433 221.567,213.289 221.567,217.506L221.567,225.43L213.133,223.002C201.247,219.551 201.503,219.807 201.503,215.461C201.503,212.011 201.886,211.627 205.465,211.627C211.471,211.627 214.283,209.583 214.283,205.11C214.283,201.404 214.411,201.276 218.5,202.043C220.673,202.554 222.973,203.193 223.612,203.576Z" style="fill:white;fill-rule:nonzero;"/>
        <path d="M126.101,62.741L126.101,94.052L148.466,94.052C165.464,94.052 171.087,93.669 171.598,92.391C171.853,91.496 171.981,77.566 171.853,61.463L171.47,32.069L168.914,36.159C167.636,38.459 165.719,40.376 164.825,40.376C162.652,40.376 162.78,38.843 165.08,35.776C166.103,34.498 166.997,32.964 166.997,32.325C166.997,31.814 157.796,31.43 146.549,31.43L126.101,31.43L126.101,62.741ZM164.313,42.166C165.591,43.699 164.441,46 158.69,54.434L151.406,64.786L153.578,69.387C155.495,73.221 155.623,74.754 154.217,79.1C151.917,87.023 146.677,91.496 139.904,91.496C125.846,91.496 123.29,73.604 136.197,65.042C138.626,63.38 142.076,62.102 144.121,62.102C147.188,62.102 148.338,60.824 153.706,51.239C159.84,40.249 161.63,38.843 164.313,42.166L164.313,42.166Z" style="fill:white;fill-rule:nonzero;"/>
        <path d="M96.196,51.239C95.813,52.517 94.663,53.156 93.512,52.645C91.212,51.878 91.084,52.389 93.001,56.096C94.024,58.268 93.64,58.14 91.084,55.329C87.506,51.495 86.611,52.134 89.678,56.223C92.873,60.441 91.851,61.208 88.273,57.374L84.95,53.795L86.995,57.246C89.806,61.974 89.551,62.997 86.483,60.185C83.033,56.99 83.289,59.291 86.867,63.125C89.167,65.808 89.295,66.192 87.378,65.553C86.1,65.042 85.333,65.169 85.845,65.808C86.228,66.447 85.845,67.214 84.95,67.47C84.055,67.853 84.311,68.364 85.717,68.876C86.995,69.387 87.634,69.259 87.122,68.492C86.739,67.725 86.995,67.214 87.634,67.214C89.806,67.214 89.295,69.515 86.867,70.92C84.822,72.071 85.078,72.454 88.784,73.86C94.918,76.288 93.768,77.055 85.206,76.416L77.41,75.905L77.793,84.595L78.177,93.413L100.925,93.796L123.545,94.052L123.545,75.905L116.516,76.416C112.682,76.544 109.487,76.416 109.487,76.032C109.487,75.649 111.788,74.627 114.727,73.732C117.667,72.837 119.584,71.815 119.2,71.432C118.817,71.048 116.772,71.432 114.472,72.198C108.976,74.115 108.465,73.221 113.321,69.77C115.366,68.237 116.772,66.447 116.389,65.808C116.005,65.042 116.644,63.252 117.922,61.719C119.2,60.185 118.306,60.569 115.877,62.741C113.449,64.786 112.299,65.553 113.194,64.403C114.088,63.125 114.599,61.463 114.216,60.569C113.96,59.674 114.216,57.757 114.855,56.351L116.005,53.795L114.088,56.351C113.066,57.757 111.277,60.057 110.126,61.463L107.954,64.019L108.848,61.463C109.36,60.057 109.871,57.501 110.126,55.712C110.51,53.028 110.382,53.156 108.721,56.607C106.804,61.208 105.398,62.102 105.781,58.524C105.909,57.374 105.781,54.945 105.781,53.156L105.526,49.961L104.12,53.156C102.842,56.223 102.842,56.223 101.819,53.795C101.053,52.134 100.669,51.878 100.541,53.156C100.541,54.434 99.902,54.051 98.752,52.006C97.346,49.45 96.963,49.322 96.196,51.239L96.196,51.239Z" style="fill:white;fill-rule:nonzero;"/>
        <path d="M123.545,95.33L123.545,157.952L100.925,157.696L78.177,157.313L77.793,126.258L77.538,95.33L123.545,95.33ZM109.461,114.96C117.029,120.739 119.177,130.664 114.254,137.111C109.331,143.558 99.19,144.101 91.622,138.322C84.054,132.543 81.906,122.617 86.829,116.17C91.752,109.724 101.893,109.181 109.461,114.96L109.461,114.96Z" style="fill:white;"/>
        <path d="M131.213,109.416C131.213,107.315 135.208,105.61 140.127,105.61C145.047,105.61 149.041,107.315 149.041,109.416L149.041,132.469C149.414,132.391 149.659,132.321 149.744,132.264C150,131.881 150.639,129.452 150.894,126.897C151.661,121.018 152.428,119.74 156.006,118.334C159.585,116.8 160.607,116.8 160.607,118.206C160.607,118.845 159.457,119.612 157.923,119.995C154.728,120.89 155.751,123.318 159.201,123.063C160.479,123.063 161.502,122.04 161.374,120.89C161.246,119.868 162.141,118.973 163.163,118.973C164.441,118.973 165.464,121.146 166.358,125.363C167.381,129.58 168.531,131.881 169.936,132.136C171.726,132.52 172.109,134.309 172.109,143.766C172.109,150.667 171.47,155.524 170.575,156.418C169.553,157.441 162.524,157.952 147.572,157.952L125.974,157.952L126.357,144.788C126.74,133.286 126.996,131.753 128.913,132.136C129.569,132.246 130.36,132.618 131.213,133.181L131.213,109.416L131.213,109.416ZM165.975,139.421C166.358,144.277 165.975,149.134 165.336,149.9C164.058,151.69 157.157,152.073 153.706,150.795C152.172,150.156 151.661,148.239 151.661,142.744C151.661,131.114 152.172,130.475 159.329,130.475L165.464,130.475L165.975,139.421ZM148.641,132.548C148.247,127.889 148.959,111.29 149.035,109.562C148.855,111.595 144.933,113.222 140.127,113.222C135.358,113.222 131.458,111.619 131.224,109.607C132.275,127.771 131.747,132.225 131.414,133.316C134.514,135.442 138.341,139.942 139.52,143.383C140.543,146.194 141.693,147.217 144.76,147.472C147.572,147.728 148.977,147.217 149.616,145.811C150.255,144.149 149.744,143.894 147.444,144.533L144.632,145.427L147.572,143.255C150.383,141.21 151.406,135.715 149.105,134.309C148.466,133.925 145.91,134.437 143.482,135.459C139.904,136.993 138.626,136.993 136.836,135.715C134.919,134.181 135.558,133.925 141.821,133.414C144.612,133.144 147.214,132.811 148.641,132.548L148.641,132.548Z" style="fill:white;"/>
        <path d="M174.562,28.235L174.562,159.869L75.084,159.869L75.084,28.235L174.562,28.235ZM172.212,30.791L77.512,30.791L77.512,157.313L172.212,157.313L172.212,30.791L172.212,30.791Z" style="fill:white;"/>
        <g transform="matrix(1,0,0,1,44.501,193.624)">
            <text x="0px" y="0px" style="font-family:'EdwardianScriptITC', 'Edwardian Script ITC', cursive;font-stretch:semi-expanded;font-size:15.336px;fill:white;">Academia Mexicana de Catadores</text>
        </g>
        <g transform="matrix(1,0,0,1,87.099,232.671)">
            <text x="0px" y="0px" style="font-family:'EdwardianScriptITC', 'Edwardian Script ITC', cursive;font-stretch:semi-expanded;font-size:13.18px;fill:none;">TEQUILA</text>
        </g>
    </g>
</svg>
